ffmpeg started on 2023-12-09 at 08:06:27
Report written to "ffmpeg-20231209-080627.log"
Log level: 48
Command line:
ffmpeg -report -framerate 30 -i "output3/morphed_image_%04d.png" -i output3/merged_audio.mp3 -i output3/subtitles.srt -map 0:v -c:v libx265 -preset slow -crf 25 -map 1:a -c:a copy -metadata:s:a:0 "language=eng" -map 2:s -c:s mov_text -metadata:s:s:0 "language=eng" -disposition:s:s:0 default+forced -y output3/video_audio_srt.mp4
ffmpeg version 2023-08-30-git-7aa71ab5c0-full_build-www.gyan.dev Copyright (c) 2000-2023 the FFmpeg developers
  built with gcc 12.2.0 (Rev10, Built by MSYS2 project)
  configuration: --enable-gpl --enable-version3 --enable-static --disable-w32threads --disable-autodetect --enable-fontconfig --enable-iconv --enable-gnutls --enable-libxml2 --enable-gmp --enable-bzlib --enable-lzma --enable-libsnappy --enable-zlib --enable-librist --enable-libsrt --enable-libssh --enable-libzmq --enable-avisynth --enable-libbluray --enable-libcaca --enable-sdl2 --enable-libaribb24 --enable-libaribcaption --enable-libdav1d --enable-libdavs2 --enable-libuavs3d --enable-libzvbi --enable-librav1e --enable-libsvtav1 --enable-libwebp --enable-libx264 --enable-libx265 --enable-libxavs2 --enable-libxvid --enable-libaom --enable-libjxl --enable-libopenjpeg --enable-libvpx --enable-mediafoundation --enable-libass --enable-frei0r --enable-libfreetype --enable-libfribidi --enable-libharfbuzz --enable-liblensfun --enable-libvidstab --enable-libvmaf --enable-libzimg --enable-amf --enable-cuda-llvm --enable-cuvid --enable-ffnvcodec --enable-nvdec --enable-nvenc --enable-dxva2 --enable-d3d11va --enable-lib  libavutil      58. 17.100 / 58. 17.100
  libavcodec     60. 23.100 / 60. 23.100
  libavformat    60. 10.101 / 60. 10.101
  libavdevice    60.  2.101 / 60.  2.101
  libavfilter     9. 11.100 /  9. 11.100
  libswscale      7.  3.100 /  7.  3.100
  libswresample   4. 11.100 /  4. 11.100
  libpostproc    57.  2.100 / 57.  2.100
Splitting the commandline.
Reading option '-report' ... matched as option 'report' (generate a report) with argument '1'.
Reading option '-framerate' ... matched as AVOption 'framerate' with argument '30'.
Reading option '-i' ... matched as output url with argument 'output3/morphed_image_%04d.png'.
Reading option '-i' ... matched as output url with argument 'output3/merged_audio.mp3'.
Reading option '-i' ... matched as output url with argument 'output3/subtitles.srt'.
Reading option '-map' ... matched as option 'map' (set input stream mapping) with argument '0:v'.
Reading option '-c:v' ... matched as option 'c' (codec name) with argument 'libx265'.
Reading option '-preset' ... matched as AVOption 'preset' with argument 'slow'.
Reading option '-crf' ... matched as AVOption 'crf' with argument '25'.
Reading option '-map' ... matched as option 'map' (set input stream mapping) with argument '1:a'.
Reading option '-c:a' ... matched as option 'c' (codec name) with argument 'copy'.
Reading option '-metadata:s:a:0' ... matched as option 'metadata' (add metadata) with argument 'language=eng'.
Reading option '-map' ... matched as option 'map' (set input stream mapping) with argument '2:s'.
Reading option '-c:s' ... matched as option 'c' (codec name) with argument 'mov_text'.
Reading option '-metadata:s:s:0' ... matched as option 'metadata' (add metadata) with argument 'language=eng'.
Reading option '-disposition:s:s:0' ... matched as option 'disposition' (disposition) with argument 'default+forced'.
Reading option '-y' ... matched as option 'y' (overwrite output files) with argument '1'.
Reading option 'output3/video_audio_srt.mp4' ... matched as output url.
Finished splitting the commandline.
Parsing a group of options: global .
Applying option report (generate a report) with argument 1.
Applying option y (overwrite output files) with argument 1.
Successfully parsed a group of options.
Parsing a group of options: input url output3/morphed_image_%04d.png.
Successfully parsed a group of options.
Opening an input file: output3/morphed_image_%04d.png.
[image2 @ 0000029609c6f340] Opening 'output3/morphed_image_0000.png' for reading
[file @ 0000029609c76340] Setting default whitelist 'file,crypto,data'
[AVIOContext @ 0000029609c7e440] Statistics: 2049731 bytes read, 0 seeks
[image2 @ 0000029609c6f340] Opening 'output3/morphed_image_0001.png' for reading
[file @ 0000029609c7eec0] Setting default whitelist 'file,crypto,data'
[AVIOContext @ 0000029609c7e740] Statistics: 2047919 bytes read, 0 seeks
[image2 @ 0000029609c6f340] Opening 'output3/morphed_image_0002.png' for reading
[file @ 0000029609c7e740] Setting default whitelist 'file,crypto,data'
[AVIOContext @ 0000029609c8fe40] Statistics: 2045510 bytes read, 0 seeks
[image2 @ 0000029609c6f340] Probe buffer size limit of 5000000 bytes reached
Input #0, image2, from 'output3/morphed_image_%04d.png':
  Duration: 00:00:08.03, start: 0.000000, bitrate: N/A
  Stream #0:0, 3, 1/30: Video: png, rgb24(pc, gbr/unknown/unknown), 1024x1024, 30 fps, 30 tbr, 30 tbn
Successfully opened the file.
Parsing a group of options: input url output3/merged_audio.mp3.
Successfully parsed a group of options.
Opening an input file: output3/merged_audio.mp3.
[AVFormatContext @ 0000029609c90680] Opening 'output3/merged_audio.mp3' for reading
[file @ 0000029609c90a00] Setting default whitelist 'file,crypto,data'
[mp3 @ 0000029609c90680] Format mp3 probed with size=2048 and score=51
id3v2 ver:4 flags:00 len:35
[mp3 @ 0000029609c90680] pad 576 576
[mp3 @ 0000029609c90680] Skipping 0 bytes of junk at 237.
[mp3 @ 0000029609c90680] Before avformat_find_stream_info() pos: 237 bytes read:32768 seeks:0 nb_streams:1
[mp3 @ 0000029609c90680] demuxer injecting skip 1105 / discard 0
[mp3float @ 0000029609c87380] skip 1105 / discard 0 samples due to side data
[mp3float @ 0000029609c87380] skip whole frame, skip left: 529
[mp3 @ 0000029609c90680] All info found
[mp3 @ 0000029609c90680] After avformat_find_stream_info() pos: 5357 bytes read:32768 seeks:0 frames:50
Input #1, mp3, from 'output3/merged_audio.mp3':
  Metadata:
    encoder         : Lavf60.10.101
  Duration: 00:00:15.62, start: 0.046042, bitrate: 32 kb/s
  Stream #1:0, 50, 1/14112000: Audio: mp3, 24000 Hz, mono, fltp, 32 kb/s
Successfully opened the file.
Parsing a group of options: input url output3/subtitles.srt.
Successfully parsed a group of options.
Opening an input file: output3/subtitles.srt.
[AVFormatContext @ 0000029609c7b640] Opening 'output3/subtitles.srt' for reading
[file @ 0000029609c91f40] Setting default whitelist 'file,crypto,data'
[srt @ 0000029609c7b640] Format srt probed with size=2048 and score=100
[srt @ 0000029609c7b640] Before avformat_find_stream_info() pos: 276 bytes read:276 seeks:0 nb_streams:1
[srt @ 0000029609c7b640] All info found
[srt @ 0000029609c7b640] After avformat_find_stream_info() pos: 276 bytes read:276 seeks:0 frames:0
Input #2, srt, from 'output3/subtitles.srt':
  Duration: N/A, bitrate: N/A
  Stream #2:0, 0, 1/1000: Subtitle: subrip
Successfully opened the file.
Parsing a group of options: output url output3/video_audio_srt.mp4.
Applying option map (set input stream mapping) with argument 0:v.
Applying option c:v (codec name) with argument libx265.
Applying option map (set input stream mapping) with argument 1:a.
Applying option c:a (codec name) with argument copy.
Applying option metadata:s:a:0 (add metadata) with argument language=eng.
Applying option map (set input stream mapping) with argument 2:s.
Applying option c:s (codec name) with argument mov_text.
Applying option metadata:s:s:0 (add metadata) with argument language=eng.
Applying option disposition:s:s:0 (disposition) with argument default+forced.
Successfully parsed a group of options.
Opening an output file: output3/video_audio_srt.mp4.
[out#0/mp4 @ 0000029609ca72c0] Adding streams from explicit maps...
[vost#0:0/libx265 @ 0000029609ca80c0] Created video stream from input stream 0:0
detected 8 logical cores
[aost#0:1/copy @ 0000029609ccbec0] Created audio stream from input stream 1:0
[sost#0:2/mov_text @ 0000029609cce6c0] Created subtitle stream from input stream 2:0
[file @ 0000029609cd2400] Setting default whitelist 'file,crypto,data'
Successfully opened the file.
Stream mapping:
  Stream #0:0 -> #0:0 (png (native) -> hevc (libx265))
  Stream #1:0 -> #0:1 (copy)
  Stream #2:0 -> #0:2 (subrip (srt) -> mov_text (native))
Press [q] to stop, [?] for help
[image2 @ 0000029609c6f340] Opening 'output3/morphed_image_0003.png' for reading
[file @ 0000029609c592c0] Setting default whitelist 'file,crypto,data'
[AVIOContext @ 0000029609c7e680] Statistics: 2043569 bytes read, 0 seeks
[image2 @ 0000029609c6f340] Opening 'output3/morphed_image_0004.png' for reading
[file @ 0000029609c592c0] Setting default whitelist 'file,crypto,data'
[AVIOContext @ 0000029609c7e680] Statistics: 2041268 bytes read, 0 seeks
[image2 @ 0000029609c6f340] Opening 'output3/morphed_image_0005.png' for reading
[file @ 0000029609c592c0] Setting default whitelist 'file,crypto,data'
[AVIOContext @ 0000029609c7e680] Statistics: 2039034 bytes read, 0 seeks
[image2 @ 0000029609c6f340] Opening 'output3/morphed_image_0006.png' for reading
[file @ 0000029609c592c0] Setting default whitelist 'file,crypto,data'
[AVIOContext @ 0000029609c7e680] Statistics: 2036912 bytes read, 0 seeks
[image2 @ 0000029609c6f340] Opening 'output3/morphed_image_0007.png' for reading
[file @ 0000029609c592c0] Setting default whitelist 'file,crypto,data'
[AVIOContext @ 0000029609c7e680] Statistics: 2034548 bytes read, 0 seeks
[image2 @ 0000029609c6f340] Opening 'output3/morphed_image_0008.png' for reading
[file @ 0000029609c592c0] Setting default whitelist 'file,crypto,data'
[AVIOContext @ 0000029609c7e680] Statistics: 2032286 bytes read, 0 seeks
[image2 @ 0000029609c6f340] Opening 'output3/morphed_image_0009.png' for reading
[file @ 0000029609c592c0] Setting default whitelist 'file,crypto,data'
[AVIOContext @ 0000029609c7e640] Statistics: 2029990 bytes read, 0 seeks
[image2 @ 0000029609c6f340] Opening 'output3/morphed_image_0010.png' for reading
[file @ 0000029609d19ec0] Setting default whitelist 'file,crypto,data'
[AVIOContext @ 0000029609c592c0] Statistics: 2027161 bytes read, 0 seeks
[image2 @ 0000029609c6f340] Opening 'output3/morphed_image_0011.png' for reading
[file @ 0000029609d19ec0] Setting default whitelist 'file,crypto,data'
[AVIOContext @ 0000029609c592c0] Statistics: 2024419 bytes read, 0 seeks
[image2 @ 0000029609c6f340] Opening 'output3/morphed_image_0012.png' for reading
[file @ 0000029609d19ec0] Setting default whitelist 'file,crypto,data'
[AVIOContext @ 0000029609c592c0] Statistics: 2022062 bytes read, 0 seeks
[image2 @ 0000029609c6f340] Opening 'output3/morphed_image_0013.png' for reading
[file @ 0000029609d19ec0] Setting default whitelist 'file,crypto,data'
[AVIOContext @ 0000029609c592c0] Statistics: 2019925 bytes read, 0 seeks
[image2 @ 0000029609c6f340] Opening 'output3/morphed_image_0014.png' for reading
[file @ 0000029609d19ec0] Setting default whitelist 'file,crypto,data'
[AVIOContext @ 0000029609c592c0] Statistics: 2017743 bytes read, 0 seeks
[image2 @ 0000029609c6f340] Opening 'output3/morphed_image_0015.png' for reading
[file @ 0000029609d19ec0] Setting default whitelist 'file,crypto,data'
[AVIOContext @ 0000029609c592c0] Statistics: 2015591 bytes read, 0 seeks
[image2 @ 0000029609c6f340] Opening 'output3/morphed_image_0016.png' for reading
[file @ 0000029609d19ec0] Setting default whitelist 'file,crypto,data'
[AVIOContext @ 0000029609c592c0] Statistics: 2013332 bytes read, 0 seeks
[in#0/image2 @ 0000029609c6f200] Thread message queue blocking; consider raising the thread_queue_size option (current value: 8)
[image2 @ 0000029609c6f340] Opening 'output3/morphed_image_0017.png' for reading
[file @ 0000029609c592c0] Setting default whitelist 'file,crypto,data'
[AVIOContext @ 0000029609c6f000] Statistics: 2011184 bytes read, 0 seeks
[graph 0 input from stream 0:0 @ 0000029609cd08c0] Setting 'video_size' to value '1024x1024'
[graph 0 input from stream 0:0 @ 0000029609cd08c0] Setting 'pix_fmt' to value '2'
[graph 0 input from stream 0:0 @ 0000029609cd08c0] Setting 'time_base' to value '1/30'
[graph 0 input from stream 0:0 @ 0000029609cd08c0] Setting 'pixel_aspect' to value '0/1'
[graph 0 input from stream 0:0 @ 0000029609cd08c0] Setting 'frame_rate' to value '30/1'
[graph 0 input from stream 0:0 @ 0000029609cd08c0] w:1024 h:1024 pixfmt:rgb24 tb:1/30 fr:30/1 sar:0/1
[format @ 0000029609cd09c0] Setting 'pix_fmts' to value 'yuv420p|yuvj420p|yuv422p|yuvj422p|yuv444p|yuvj444p|gbrp|yuv420p10le|yuv422p10le|yuv444p10le|gbrp10le|yuv420p12le|yuv422p12le|yuv444p12le|gbrp12le|gray|gray10le|gray12le'
[auto_scale_0 @ 0000029609cd02c0] w:iw h:ih flags:'' interl:0
[format @ 0000029609cd09c0] auto-inserting filter 'auto_scale_0' between the filter 'Parsed_null_0' and the filter 'format'
[AVFilterGraph @ 0000029609c592c0] query_formats: 4 queried, 2 merged, 1 already done, 0 delayed
[auto_scale_0 @ 0000029609cd02c0] picking gbrp out of 18 ref:rgb24 alpha:0
[swscaler @ 000002960a302c00] [swscaler @ 000002960a30fd80] Forcing full internal H chroma due to input having non subsampled chroma
[swscaler @ 000002960a302c00] [swscaler @ 000002960a31cd40] Forcing full internal H chroma due to input having non subsampled chroma
[swscaler @ 000002960a302c00] [swscaler @ 000002960a329d40] Forcing full internal H chroma due to input having non subsampled chroma
[swscaler @ 000002960a302c00] [swscaler @ 000002960a336d00] Forcing full internal H chroma due to input having non subsampled chroma
[swscaler @ 000002960a302c00] [swscaler @ 000002960a343d00] Forcing full internal H chroma due to input having non subsampled chroma
[swscaler @ 000002960a302c00] [swscaler @ 000002960a351dc0] Forcing full internal H chroma due to input having non subsampled chroma
[swscaler @ 000002960a302c00] [swscaler @ 000002960a3606c0] Forcing full internal H chroma due to input having non subsampled chroma
[swscaler @ 000002960a302c00] [swscaler @ 000002960a36f000] Forcing full internal H chroma due to input having non subsampled chroma
[swscaler @ 000002960a302c00] [swscaler @ 000002960a37d900] Forcing full internal H chroma due to input having non subsampled chroma
[auto_scale_0 @ 0000029609cd02c0] w:1024 h:1024 fmt:rgb24 sar:0/1 -> w:1024 h:1024 fmt:gbrp sar:0/1 flags:0x00000004
[swscaler @ 000002960a302c00] [swscaler @ 000002960a30fbc0] Forcing full internal H chroma due to input having non subsampled chroma
[swscaler @ 000002960a302c00] [swscaler @ 000002960a31cbc0] Forcing full internal H chroma due to input having non subsampled chroma
[swscaler @ 000002960a302c00] [swscaler @ 000002960a329b80] Forcing full internal H chroma due to input having non subsampled chroma
[swscaler @ 000002960a302c00] [swscaler @ 000002960a336b80] Forcing full internal H chroma due to input having non subsampled chroma
[swscaler @ 000002960a302c00] [swscaler @ 000002960a344c40] Forcing full internal H chroma due to input having non subsampled chroma
[swscaler @ 000002960a302c00] [swscaler @ 000002960a352d00] Forcing full internal H chroma due to input having non subsampled chroma
[swscaler @ 000002960a302c00] [swscaler @ 000002960a361640] Forcing full internal H chroma due to input having non subsampled chroma
[swscaler @ 000002960a302c00] [swscaler @ 000002960a36ff40] Forcing full internal H chroma due to input having non subsampled chroma
[swscaler @ 000002960a302c00] [swscaler @ 000002960a37e880] Forcing full internal H chroma due to input having non subsampled chroma
[auto_scale_0 @ 0000029609cd02c0] w:1024 h:1024 fmt:rgb24 sar:0/1 -> w:1024 h:1024 fmt:gbrp sar:0/1 flags:0x00000004
[swscaler @ 000002960a302c00] [swscaler @ 000002960a30fbc0] Forcing full internal H chroma due to input having non subsampled chroma
[swscaler @ 000002960a302c00] [swscaler @ 000002960a31cbc0] Forcing full internal H chroma due to input having non subsampled chroma
[swscaler @ 000002960a302c00] [swscaler @ 000002960a329b80] Forcing full internal H chroma due to input having non subsampled chroma
[swscaler @ 000002960a302c00] [swscaler @ 000002960a336b80] Forcing full internal H chroma due to input having non subsampled chroma
[swscaler @ 000002960a302c00] [swscaler @ 000002960a344c40] Forcing full internal H chroma due to input having non subsampled chroma
[swscaler @ 000002960a302c00] [swscaler @ 000002960a352d00] Forcing full internal H chroma due to input having non subsampled chroma
[swscaler @ 000002960a302c00] [swscaler @ 000002960a361640] Forcing full internal H chroma due to input having non subsampled chroma
[swscaler @ 000002960a302c00] [swscaler @ 000002960a36ff40] Forcing full internal H chroma due to input having non subsampled chroma
[swscaler @ 000002960a302c00] [swscaler @ 000002960a37e880] Forcing full internal H chroma due to input having non subsampled chroma
[auto_scale_0 @ 0000029609cd02c0] w:1024 h:1024 fmt:rgb24 sar:0/1 -> w:1024 h:1024 fmt:gbrp sar:0/1 flags:0x00000004
[swscaler @ 000002960a302c00] [swscaler @ 000002960a30fbc0] Forcing full internal H chroma due to input having non subsampled chroma
[swscaler @ 000002960a302c00] [swscaler @ 000002960a31cbc0] Forcing full internal H chroma due to input having non subsampled chroma
[swscaler @ 000002960a302c00] [swscaler @ 000002960a329b80] Forcing full internal H chroma due to input having non subsampled chroma
[swscaler @ 000002960a302c00] [swscaler @ 000002960a336b80] Forcing full internal H chroma due to input having non subsampled chroma
[swscaler @ 000002960a302c00] [swscaler @ 000002960a344c40] Forcing full internal H chroma due to input having non subsampled chroma
[swscaler @ 000002960a302c00] [swscaler @ 000002960a352d00] Forcing full internal H chroma due to input having non subsampled chroma
[swscaler @ 000002960a302c00] [swscaler @ 000002960a361640] Forcing full internal H chroma due to input having non subsampled chroma
[swscaler @ 000002960a302c00] [swscaler @ 000002960a36ff40] Forcing full internal H chroma due to input having non subsampled chroma
[swscaler @ 000002960a302c00] [swscaler @ 000002960a37e880] Forcing full internal H chroma due to input having non subsampled chroma
[auto_scale_0 @ 0000029609cd02c0] w:1024 h:1024 fmt:rgb24 sar:0/1 -> w:1024 h:1024 fmt:gbrp sar:0/1 flags:0x00000004
Output #0, mp4, to 'output3/video_audio_srt.mp4':
  Metadata:
    encoder         : Lavf60.10.101
  Stream #0:0, 0, 1/15360: Video: hevc (hev1 / 0x31766568), gbrp(pc, gbr/unknown/unknown, progressive), 1024x1024, q=2-31, 30 fps, 15360 tbn
    Metadata:
      encoder         : Lavc60.23.100 libx265
    Side data:
      cpb: bitrate max/min/avg: 0/0/0 buffer size: 0 vbv_delay: N/A
  Stream #0:1(eng), 0, 1/24000: Audio: mp3 (mp4a / 0x6134706D), 24000 Hz, mono, fltp, 32 kb/s
  Stream #0:2(eng), 0, 1/1000000: Subtitle: mov_text (tx3g / 0x67337874) (default) (forced)
    Metadata:
      encoder         : Lavc60.23.100 mov_text
frame=    0 fps=0.0 q=0.0 size=       0kB time=N/A bitrate=N/A speed=N/A    [in#2/srt @ 0000029609c87bc0] EOF while reading input
[in#2/srt @ 0000029609c87bc0] Terminating demuxer thread
[image2 @ 0000029609c6f340] Opening 'output3/morphed_image_0018.png' for reading
[file @ 000002960fa769c0] Setting default whitelist 'file,crypto,data'
[AVIOContext @ 000002960fa76400] Statistics: 2009139 bytes read, 0 seeks
[image2 @ 0000029609c6f340] Opening 'output3/morphed_image_0019.png' for reading
[file @ 000002960fa772c0] Setting default whitelist 'file,crypto,data'
[AVIOContext @ 000002960fa76400] Statistics: 2006898 bytes read, 0 seeks
[image2 @ 0000029609c6f340] Opening 'output3/morphed_image_0020.png' for reading
[file @ 000002960fa76840] Setting default whitelist 'file,crypto,data'
[AVIOContext @ 000002960fa76400] Statistics: 2004927 bytes read, 0 seeks
[image2 @ 0000029609c6f340] Opening 'output3/morphed_image_0021.png' for reading
[file @ 000002960fa77040] Setting default whitelist 'file,crypto,data'
[AVIOContext @ 000002960fa76400] Statistics: 2002817 bytes read, 0 seeks
[image2 @ 0000029609c6f340] Opening 'output3/morphed_image_0022.png' for reading
[file @ 000002960fa77440] Setting default whitelist 'file,crypto,data'
[AVIOContext @ 000002960fa76400] Statistics: 2000562 bytes read, 0 seeks
[image2 @ 0000029609c6f340] Opening 'output3/morphed_image_0023.png' for reading
[file @ 000002960fa76dc0] Setting default whitelist 'file,crypto,data'
[AVIOContext @ 000002960fa76400] Statistics: 1998267 bytes read, 0 seeks
[image2 @ 0000029609c6f340] Opening 'output3/morphed_image_0024.png' for reading
[file @ 000002960fa76b80] Setting default whitelist 'file,crypto,data'
[AVIOContext @ 000002960fa76400] Statistics: 1996209 bytes read, 0 seeks
[image2 @ 0000029609c6f340] Opening 'output3/morphed_image_0025.png' for reading
[file @ 000002960fa76840] Setting default whitelist 'file,crypto,data'
[AVIOContext @ 000002960fa76400] Statistics: 1994113 bytes read, 0 seeks
[image2 @ 0000029609c6f340] Opening 'output3/morphed_image_0026.png' for reading
[file @ 000002960fa76d00] Setting default whitelist 'file,crypto,data'
[AVIOContext @ 000002960fa76400] Statistics: 1991714 bytes read, 0 seeks
[image2 @ 0000029609c6f340] Opening 'output3/morphed_image_0027.png' for reading
[file @ 000002960fa76680] Setting default whitelist 'file,crypto,data'
[AVIOContext @ 000002960fa76400] Statistics: 1989438 bytes read, 0 seeks
[image2 @ 0000029609c6f340] Opening 'output3/morphed_image_0028.png' for reading
[file @ 000002960fa77040] Setting default whitelist 'file,crypto,data'
[AVIOContext @ 000002960fa76400] Statistics: 1986988 bytes read, 0 seeks
[image2 @ 0000029609c6f340] Opening 'output3/morphed_image_0029.png' for reading
[file @ 000002960fa76c40] Setting default whitelist 'file,crypto,data'
[AVIOContext @ 000002960fa76400] Statistics: 1984750 bytes read, 0 seeks
[image2 @ 0000029609c6f340] Opening 'output3/morphed_image_0030.png' for reading
[file @ 000002960fa76740] Setting default whitelist 'file,crypto,data'
[AVIOContext @ 000002960fa76400] Statistics: 1982486 bytes read, 0 seeks
[image2 @ 0000029609c6f340] Opening 'output3/morphed_image_0031.png' for reading
[file @ 000002960fa76740] Setting default whitelist 'file,crypto,data'
[AVIOContext @ 000002960fa76400] Statistics: 1980211 bytes read, 0 seeks
[image2 @ 0000029609c6f340] Opening 'output3/morphed_image_0032.png' for reading
[file @ 000002960fa76900] Setting default whitelist 'file,crypto,data'
[AVIOContext @ 000002960fa76400] Statistics: 1977911 bytes read, 0 seeks
[image2 @ 0000029609c6f340] Opening 'output3/morphed_image_0033.png' for reading
[file @ 000002960fa76ec0] Setting default whitelist 'file,crypto,data'
[AVIOContext @ 000002960fa76400] Statistics: 1975306 bytes read, 0 seeks
[image2 @ 0000029609c6f340] Opening 'output3/morphed_image_0034.png' for reading
[file @ 000002960fa76dc0] Setting default whitelist 'file,crypto,data'
[AVIOContext @ 000002960fa76400] Statistics: 1973034 bytes read, 0 seeks
[image2 @ 0000029609c6f340] Opening 'output3/morphed_image_0035.png' for reading
[file @ 000002960fa76ec0] Setting default whitelist 'file,crypto,data'
[AVIOContext @ 000002960fa76400] Statistics: 1970838 bytes read, 0 seeks
[image2 @ 0000029609c6f340] Opening 'output3/morphed_image_0036.png' for reading
[file @ 000002960fa77040] Setting default whitelist 'file,crypto,data'
[AVIOContext @ 000002960fa76400] Statistics: 1968607 bytes read, 0 seeks
[image2 @ 0000029609c6f340] Opening 'output3/morphed_image_0037.png' for reading
[file @ 000002961633abc0] Setting default whitelist 'file,crypto,data'
[AVIOContext @ 000002960fa76400] Statistics: 1966174 bytes read, 0 seeks
[image2 @ 0000029609c6f340] Opening 'output3/morphed_image_0038.png' for reading
[file @ 0000029616339500] Setting default whitelist 'file,crypto,data'
[AVIOContext @ 000002960fa76400] Statistics: 1963914 bytes read, 0 seeks
[image2 @ 0000029609c6f340] Opening 'output3/morphed_image_0039.png' for reading
[file @ 0000029616339b80] Setting default whitelist 'file,crypto,data'
[AVIOContext @ 000002960fa76400] Statistics: 1961717 bytes read, 0 seeks
[image2 @ 0000029609c6f340] Opening 'output3/morphed_image_0040.png' for reading
[file @ 0000029616339100] Setting default whitelist 'file,crypto,data'
[AVIOContext @ 000002960fa76400] Statistics: 1959560 bytes read, 0 seeks
[image2 @ 0000029609c6f340] Opening 'output3/morphed_image_0041.png' for reading
[file @ 0000029616339c40] Setting default whitelist 'file,crypto,data'
[AVIOContext @ 000002960fa76400] Statistics: 1957572 bytes read, 0 seeks
[image2 @ 0000029609c6f340] Opening 'output3/morphed_image_0042.png' for reading
[file @ 0000029616339280] Setting default whitelist 'file,crypto,data'
[AVIOContext @ 000002960fa76400] Statistics: 1955304 bytes read, 0 seeks
[image2 @ 0000029609c6f340] Opening 'output3/morphed_image_0043.png' for reading
[file @ 0000029616339680] Setting default whitelist 'file,crypto,data'
[AVIOContext @ 000002960fa76400] Statistics: 1952906 bytes read, 0 seeks
[image2 @ 0000029609c6f340] Opening 'output3/morphed_image_0044.png' for reading
[file @ 0000029616339280] Setting default whitelist 'file,crypto,data'
[AVIOContext @ 000002960fa76400] Statistics: 1950731 bytes read, 0 seeks
[image2 @ 0000029609c6f340] Opening 'output3/morphed_image_0045.png' for reading
[file @ 0000029616339340] Setting default whitelist 'file,crypto,data'
[AVIOContext @ 000002960fa76400] Statistics: 1948527 bytes read, 0 seeks
[image2 @ 0000029609c6f340] Opening 'output3/morphed_image_0046.png' for reading
[file @ 0000029616339840] Setting default whitelist 'file,crypto,data'
[AVIOContext @ 000002960fa76400] Statistics: 1946452 bytes read, 0 seeks
[image2 @ 0000029609c6f340] Opening 'output3/morphed_image_0047.png' for reading
[file @ 000002961633af00] Setting default whitelist 'file,crypto,data'
[AVIOContext @ 000002960fa76400] Statistics: 1943755 bytes read, 0 seeks
[image2 @ 0000029609c6f340] Opening 'output3/morphed_image_0048.png' for reading
[file @ 000002961633a940] Setting default whitelist 'file,crypto,data'
[AVIOContext @ 000002960fa76400] Statistics: 1941587 bytes read, 0 seeks
[image2 @ 0000029609c6f340] Opening 'output3/morphed_image_0049.png' for reading
[file @ 0000029616339900] Setting default whitelist 'file,crypto,data'
[AVIOContext @ 000002960fa76400] Statistics: 1939251 bytes read, 0 seeks
frame=    0 fps=0.0 q=0.0 size=       0kB time=00:00:09.00 bitrate=   0.0kbits/s speed=15.6x    [image2 @ 0000029609c6f340] Opening 'output3/morphed_image_0050.png' for reading
[file @ 000002961633a200] Setting default whitelist 'file,crypto,data'
[AVIOContext @ 000002960fa76400] Statistics: 1937143 bytes read, 0 seeks
[image2 @ 0000029609c6f340] Opening 'output3/morphed_image_0051.png' for reading
[file @ 0000029616339780] Setting default whitelist 'file,crypto,data'
[AVIOContext @ 000002960fa76400] Statistics: 1934588 bytes read, 0 seeks
frame=    1 fps=0.6 q=24.3 size=       0kB time=00:00:09.00 bitrate=   0.0kbits/s speed= 5.7x    [image2 @ 0000029609c6f340] Opening 'output3/morphed_image_0052.png' for reading
[file @ 000002961633ab00] Setting default whitelist 'file,crypto,data'
[AVIOContext @ 000002960fa76400] Statistics: 1932690 bytes read, 0 seeks
[image2 @ 0000029609c6f340] Opening 'output3/morphed_image_0053.png' for reading
[file @ 0000029616339780] Setting default whitelist 'file,crypto,data'
[AVIOContext @ 000002960fa76400] Statistics: 1930410 bytes read, 0 seeks
[image2 @ 0000029609c6f340] Opening 'output3/morphed_image_0054.png' for reading
[file @ 000002961633a6c0] Setting default whitelist 'file,crypto,data'
[AVIOContext @ 000002960fa76400] Statistics: 1928099 bytes read, 0 seeks
[image2 @ 0000029609c6f340] Opening 'output3/morphed_image_0055.png' for reading
[file @ 0000029616339c40] Setting default whitelist 'file,crypto,data'
[AVIOContext @ 000002960fa76400] Statistics: 1925460 bytes read, 0 seeks
[image2 @ 0000029609c6f340] Opening 'output3/morphed_image_0056.png' for reading
[file @ 0000029616339e00] Setting default whitelist 'file,crypto,data'
[AVIOContext @ 000002960fa76400] Statistics: 1923284 bytes read, 0 seeks
[image2 @ 0000029609c6f340] Opening 'output3/morphed_image_0057.png' for reading
[file @ 000002961633a940] Setting default whitelist 'file,crypto,data'
[AVIOContext @ 000002960fa76400] Statistics: 1921014 bytes read, 0 seeks
[image2 @ 0000029609c6f340] Opening 'output3/morphed_image_0058.png' for reading
[file @ 0000029616339c40] Setting default whitelist 'file,crypto,data'
[AVIOContext @ 000002960fa76400] Statistics: 1918735 bytes read, 0 seeks
[image2 @ 0000029609c6f340] Opening 'output3/morphed_image_0059.png' for reading
[file @ 000002961633ad40] Setting default whitelist 'file,crypto,data'
[AVIOContext @ 000002960fa76400] Statistics: 1916585 bytes read, 0 seeks
frame=    9 fps=4.1 q=24.8 size=     256kB time=00:00:09.00 bitrate= 233.1kbits/s speed=4.09x    [image2 @ 0000029609c6f340] Opening 'output3/morphed_image_0060.png' for reading
[file @ 000002961633a380] Setting default whitelist 'file,crypto,data'
[AVIOContext @ 000002960fa76400] Statistics: 1914030 bytes read, 0 seeks
[image2 @ 0000029609c6f340] Opening 'output3/morphed_image_0061.png' for reading
[file @ 0000029616339e00] Setting default whitelist 'file,crypto,data'
[AVIOContext @ 000002960fa76400] Statistics: 1912530 bytes read, 0 seeks
[image2 @ 0000029609c6f340] Opening 'output3/morphed_image_0062.png' for reading
[file @ 0000029616339e00] Setting default whitelist 'file,crypto,data'
[AVIOContext @ 000002960fa76400] Statistics: 1910292 bytes read, 0 seeks
[image2 @ 0000029609c6f340] Opening 'output3/morphed_image_0063.png' for reading
[file @ 000002961633a940] Setting default whitelist 'file,crypto,data'
[AVIOContext @ 000002960fa76400] Statistics: 1907982 bytes read, 0 seeks
[image2 @ 0000029609c6f340] Opening 'output3/morphed_image_0064.png' for reading
[file @ 0000029616339780] Setting default whitelist 'file,crypto,data'
[AVIOContext @ 000002960fa76400] Statistics: 1905789 bytes read, 0 seeks
[image2 @ 0000029609c6f340] Opening 'output3/morphed_image_0065.png' for reading
[file @ 0000029616339780] Setting default whitelist 'file,crypto,data'
[AVIOContext @ 000002960fa76400] Statistics: 1903385 bytes read, 0 seeks
[image2 @ 0000029609c6f340] Opening 'output3/morphed_image_0066.png' for reading
[file @ 000002961633ab00] Setting default whitelist 'file,crypto,data'
[AVIOContext @ 000002960fa76400] Statistics: 1901359 bytes read, 0 seeks
frame=   16 fps=5.9 q=24.6 size=     256kB time=00:00:09.00 bitrate= 233.1kbits/s speed=3.32x    [image2 @ 0000029609c6f340] Opening 'output3/morphed_image_0067.png' for reading
[file @ 000002961633a380] Setting default whitelist 'file,crypto,data'
[AVIOContext @ 000002960fa76400] Statistics: 1899127 bytes read, 0 seeks
[image2 @ 0000029609c6f340] Opening 'output3/morphed_image_0068.png' for reading
[file @ 0000029616339780] Setting default whitelist 'file,crypto,data'
[AVIOContext @ 000002960fa76400] Statistics: 1896795 bytes read, 0 seeks
[image2 @ 0000029609c6f340] Opening 'output3/morphed_image_0069.png' for reading
[file @ 0000029616339c40] Setting default whitelist 'file,crypto,data'
[AVIOContext @ 000002960fa76400] Statistics: 1894674 bytes read, 0 seeks
[image2 @ 0000029609c6f340] Opening 'output3/morphed_image_0070.png' for reading
[file @ 0000029616339780] Setting default whitelist 'file,crypto,data'
[AVIOContext @ 000002960fa76400] Statistics: 1892396 bytes read, 0 seeks
[image2 @ 0000029609c6f340] Opening 'output3/morphed_image_0071.png' for reading
[file @ 000002961633a380] Setting default whitelist 'file,crypto,data'
[AVIOContext @ 000002960fa76400] Statistics: 1889709 bytes read, 0 seeks
[image2 @ 0000029609c6f340] Opening 'output3/morphed_image_0072.png' for reading
[file @ 0000029616339840] Setting default whitelist 'file,crypto,data'
[AVIOContext @ 000002960fa76400] Statistics: 1887796 bytes read, 0 seeks
frame=   22 fps=6.6 q=24.4 size=     256kB time=00:00:09.00 bitrate= 233.1kbits/s speed= 2.7x    [image2 @ 0000029609c6f340] Opening 'output3/morphed_image_0073.png' for reading
[file @ 0000029616339c40] Setting default whitelist 'file,crypto,data'
[AVIOContext @ 000002960fa76400] Statistics: 1885891 bytes read, 0 seeks
[image2 @ 0000029609c6f340] Opening 'output3/morphed_image_0074.png' for reading
[file @ 000002961633a6c0] Setting default whitelist 'file,crypto,data'
[AVIOContext @ 000002960fa76400] Statistics: 1883768 bytes read, 0 seeks
[image2 @ 0000029609c6f340] Opening 'output3/morphed_image_0075.png' for reading
[file @ 0000029616339780] Setting default whitelist 'file,crypto,data'
[AVIOContext @ 000002960fa76400] Statistics: 1881438 bytes read, 0 seeks
[image2 @ 0000029609c6f340] Opening 'output3/morphed_image_0076.png' for reading
[file @ 000002961633a380] Setting default whitelist 'file,crypto,data'
[AVIOContext @ 000002960fa76400] Statistics: 1879295 bytes read, 0 seeks
[image2 @ 0000029609c6f340] Opening 'output3/morphed_image_0077.png' for reading
[file @ 000002961633ab00] Setting default whitelist 'file,crypto,data'
[AVIOContext @ 000002960fa76400] Statistics: 1876805 bytes read, 0 seeks
[image2 @ 0000029609c6f340] Opening 'output3/morphed_image_0078.png' for reading
[file @ 000002961633a6c0] Setting default whitelist 'file,crypto,data'
[AVIOContext @ 000002960fa76400] Statistics: 1874542 bytes read, 0 seeks
frame=   28 fps=7.3 q=24.8 size=     256kB time=00:00:09.00 bitrate= 233.1kbits/s speed=2.34x    [image2 @ 0000029609c6f340] Opening 'output3/morphed_image_0079.png' for reading
[file @ 0000029616339780] Setting default whitelist 'file,crypto,data'
[AVIOContext @ 000002960fa76400] Statistics: 1872188 bytes read, 0 seeks
[image2 @ 0000029609c6f340] Opening 'output3/morphed_image_0080.png' for reading
[file @ 0000029616339780] Setting default whitelist 'file,crypto,data'
[AVIOContext @ 000002960fa76400] Statistics: 1869951 bytes read, 0 seeks
[image2 @ 0000029609c6f340] Opening 'output3/morphed_image_0081.png' for reading
[file @ 0000029616339900] Setting default whitelist 'file,crypto,data'
[AVIOContext @ 000002960fa76400] Statistics: 1868099 bytes read, 0 seeks
[image2 @ 0000029609c6f340] Opening 'output3/morphed_image_0082.png' for reading
[file @ 0000029616339c40] Setting default whitelist 'file,crypto,data'
[AVIOContext @ 000002960fa76400] Statistics: 1865866 bytes read, 0 seeks
[image2 @ 0000029609c6f340] Opening 'output3/morphed_image_0083.png' for reading
[file @ 000002961633a380] Setting default whitelist 'file,crypto,data'
[AVIOContext @ 000002960fa76400] Statistics: 1863839 bytes read, 0 seeks
[image2 @ 0000029609c6f340] Opening 'output3/morphed_image_0084.png' for reading
[file @ 000002961633a380] Setting default whitelist 'file,crypto,data'
[AVIOContext @ 000002960fa76400] Statistics: 1861486 bytes read, 0 seeks
[image2 @ 0000029609c6f340] Opening 'output3/morphed_image_0085.png' for reading
[file @ 0000029616339780] Setting default whitelist 'file,crypto,data'
[AVIOContext @ 000002960fa76400] Statistics: 1859152 bytes read, 0 seeks
frame=   35 fps=7.9 q=24.5 size=     256kB time=00:00:09.00 bitrate= 233.1kbits/s speed=2.03x    [image2 @ 0000029609c6f340] Opening 'output3/morphed_image_0086.png' for reading
[file @ 0000029616339e00] Setting default whitelist 'file,crypto,data'
[AVIOContext @ 000002960fa76400] Statistics: 1857286 bytes read, 0 seeks
[image2 @ 0000029609c6f340] Opening 'output3/morphed_image_0087.png' for reading
[file @ 000002961633a380] Setting default whitelist 'file,crypto,data'
[AVIOContext @ 000002960fa76400] Statistics: 1855261 bytes read, 0 seeks
[image2 @ 0000029609c6f340] Opening 'output3/morphed_image_0088.png' for reading
[file @ 0000029616339c40] Setting default whitelist 'file,crypto,data'
[AVIOContext @ 000002960fa76400] Statistics: 1853127 bytes read, 0 seeks
[image2 @ 0000029609c6f340] Opening 'output3/morphed_image_0089.png' for reading
[file @ 0000029616339780] Setting default whitelist 'file,crypto,data'
[AVIOContext @ 000002960fa76400] Statistics: 1851025 bytes read, 0 seeks
[image2 @ 0000029609c6f340] Opening 'output3/morphed_image_0090.png' for reading
[file @ 0000029616339780] Setting default whitelist 'file,crypto,data'
[AVIOContext @ 000002960fa76400] Statistics: 1848522 bytes read, 0 seeks
[image2 @ 0000029609c6f340] Opening 'output3/morphed_image_0091.png' for reading
[file @ 0000029616339840] Setting default whitelist 'file,crypto,data'
[AVIOContext @ 000002960fa76400] Statistics: 1846657 bytes read, 0 seeks
[image2 @ 0000029609c6f340] Opening 'output3/morphed_image_0092.png' for reading
[file @ 0000029616339e00] Setting default whitelist 'file,crypto,data'
[AVIOContext @ 000002960fa76400] Statistics: 1844795 bytes read, 0 seeks
[image2 @ 0000029609c6f340] Opening 'output3/morphed_image_0093.png' for reading
[file @ 0000029616339780] Setting default whitelist 'file,crypto,data'
[AVIOContext @ 000002960fa76400] Statistics: 1842686 bytes read, 0 seeks
frame=   43 fps=8.5 q=24.4 size=     256kB time=00:00:09.00 bitrate= 233.1kbits/s speed=1.79x    [image2 @ 0000029609c6f340] Opening 'output3/morphed_image_0094.png' for reading
[file @ 0000029616339780] Setting default whitelist 'file,crypto,data'
[AVIOContext @ 000002960fa76400] Statistics: 1840697 bytes read, 0 seeks
[image2 @ 0000029609c6f340] Opening 'output3/morphed_image_0095.png' for reading
[file @ 0000029616339c40] Setting default whitelist 'file,crypto,data'
[AVIOContext @ 000002960fa76400] Statistics: 1838538 bytes read, 0 seeks
[image2 @ 0000029609c6f340] Opening 'output3/morphed_image_0096.png' for reading
[file @ 000002961633a380] Setting default whitelist 'file,crypto,data'
[AVIOContext @ 000002960fa76400] Statistics: 1836297 bytes read, 0 seeks
[image2 @ 0000029609c6f340] Opening 'output3/morphed_image_0097.png' for reading
[file @ 000002961633a380] Setting default whitelist 'file,crypto,data'
[AVIOContext @ 000002960fa76400] Statistics: 1834357 bytes read, 0 seeks
[image2 @ 0000029609c6f340] Opening 'output3/morphed_image_0098.png' for reading
[file @ 0000029616339e00] Setting default whitelist 'file,crypto,data'
[AVIOContext @ 000002960fa76400] Statistics: 1832120 bytes read, 0 seeks
[image2 @ 0000029609c6f340] Opening 'output3/morphed_image_0099.png' for reading
[file @ 0000029616339780] Setting default whitelist 'file,crypto,data'
[AVIOContext @ 000002960fa76400] Statistics: 1829909 bytes read, 0 seeks
[image2 @ 0000029609c6f340] Opening 'output3/morphed_image_0100.png' for reading
[file @ 0000029616339c40] Setting default whitelist 'file,crypto,data'
[AVIOContext @ 000002960fa76400] Statistics: 1827994 bytes read, 0 seeks
[image2 @ 0000029609c6f340] Opening 'output3/morphed_image_0101.png' for reading
[file @ 0000029616339780] Setting default whitelist 'file,crypto,data'
[AVIOContext @ 000002960fa76400] Statistics: 1826407 bytes read, 0 seeks
frame=   51 fps=8.9 q=24.5 size=     256kB time=00:00:09.00 bitrate= 233.1kbits/s speed=1.58x    [image2 @ 0000029609c6f340] Opening 'output3/morphed_image_0102.png' for reading
[file @ 000002961633a380] Setting default whitelist 'file,crypto,data'
[AVIOContext @ 000002960fa76400] Statistics: 1823886 bytes read, 0 seeks
[image2 @ 0000029609c6f340] Opening 'output3/morphed_image_0103.png' for reading
[file @ 0000029616339900] Setting default whitelist 'file,crypto,data'
[AVIOContext @ 000002960fa76400] Statistics: 1821950 bytes read, 0 seeks
[image2 @ 0000029609c6f340] Opening 'output3/morphed_image_0104.png' for reading
[file @ 000002961633ad40] Setting default whitelist 'file,crypto,data'
[AVIOContext @ 000002960fa76400] Statistics: 1819990 bytes read, 0 seeks
[image2 @ 0000029609c6f340] Opening 'output3/morphed_image_0105.png' for reading
[file @ 0000029616339780] Setting default whitelist 'file,crypto,data'
[AVIOContext @ 000002960fa76400] Statistics: 1817934 bytes read, 0 seeks
[image2 @ 0000029609c6f340] Opening 'output3/morphed_image_0106.png' for reading
[file @ 000002961633a940] Setting default whitelist 'file,crypto,data'
[AVIOContext @ 000002960fa76400] Statistics: 1816123 bytes read, 0 seeks
[image2 @ 0000029609c6f340] Opening 'output3/morphed_image_0107.png' for reading
[file @ 0000029616339780] Setting default whitelist 'file,crypto,data'
[AVIOContext @ 000002960fa76400] Statistics: 1814108 bytes read, 0 seeks
[image2 @ 0000029609c6f340] Opening 'output3/morphed_image_0108.png' for reading
[file @ 0000029616339e00] Setting default whitelist 'file,crypto,data'
[AVIOContext @ 000002960fa76400] Statistics: 1812322 bytes read, 0 seeks
[image2 @ 0000029609c6f340] Opening 'output3/morphed_image_0109.png' for reading
[file @ 000002961633a380] Setting default whitelist 'file,crypto,data'
[AVIOContext @ 000002960fa76400] Statistics: 1810102 bytes read, 0 seeks
frame=   59 fps=9.5 q=33.0 size=     256kB time=00:00:09.00 bitrate= 233.1kbits/s speed=1.45x    [image2 @ 0000029609c6f340] Opening 'output3/morphed_image_0110.png' for reading
[file @ 000002961633a6c0] Setting default whitelist 'file,crypto,data'
[AVIOContext @ 000002960fa76400] Statistics: 1807981 bytes read, 0 seeks
[image2 @ 0000029609c6f340] Opening 'output3/morphed_image_0111.png' for reading
[file @ 0000029616339780] Setting default whitelist 'file,crypto,data'
[AVIOContext @ 000002960fa76400] Statistics: 1805824 bytes read, 0 seeks
[image2 @ 0000029609c6f340] Opening 'output3/morphed_image_0112.png' for reading
[file @ 0000029616339c40] Setting default whitelist 'file,crypto,data'
[AVIOContext @ 000002960fa76400] Statistics: 1803693 bytes read, 0 seeks
[image2 @ 0000029609c6f340] Opening 'output3/morphed_image_0113.png' for reading
[file @ 000002961633a6c0] Setting default whitelist 'file,crypto,data'
[AVIOContext @ 000002960fa76400] Statistics: 1801892 bytes read, 0 seeks
[image2 @ 0000029609c6f340] Opening 'output3/morphed_image_0114.png' for reading
[file @ 0000029616339780] Setting default whitelist 'file,crypto,data'
[AVIOContext @ 000002960fa76400] Statistics: 1799736 bytes read, 0 seeks
[image2 @ 0000029609c6f340] Opening 'output3/morphed_image_0115.png' for reading
[file @ 0000029616339900] Setting default whitelist 'file,crypto,data'
[AVIOContext @ 000002960fa76400] Statistics: 1797803 bytes read, 0 seeks
frame=   65 fps=9.6 q=24.4 size=     256kB time=00:00:09.00 bitrate= 233.1kbits/s speed=1.33x    [image2 @ 0000029609c6f340] Opening 'output3/morphed_image_0116.png' for reading
[file @ 0000029616339780] Setting default whitelist 'file,crypto,data'
[AVIOContext @ 000002960fa76400] Statistics: 1795924 bytes read, 0 seeks
[image2 @ 0000029609c6f340] Opening 'output3/morphed_image_0117.png' for reading
[file @ 000002961633a380] Setting default whitelist 'file,crypto,data'
[AVIOContext @ 000002960fa76400] Statistics: 1794136 bytes read, 0 seeks
[image2 @ 0000029609c6f340] Opening 'output3/morphed_image_0118.png' for reading
[file @ 000002961633a380] Setting default whitelist 'file,crypto,data'
[AVIOContext @ 000002960fa76400] Statistics: 1792101 bytes read, 0 seeks
[image2 @ 0000029609c6f340] Opening 'output3/morphed_image_0119.png' for reading
[file @ 0000029616339780] Setting default whitelist 'file,crypto,data'
[AVIOContext @ 000002960fa76400] Statistics: 1789957 bytes read, 0 seeks
[image2 @ 0000029609c6f340] Opening 'output3/morphed_image_0120.png' for reading
[file @ 0000029616339840] Setting default whitelist 'file,crypto,data'
[AVIOContext @ 000002960fa76400] Statistics: 1778590 bytes read, 0 seeks
[image2 @ 0000029609c6f340] Opening 'output3/morphed_image_0121.png' for reading
[file @ 000002961633a380] Setting default whitelist 'file,crypto,data'
[AVIOContext @ 000002960fa76400] Statistics: 1786681 bytes read, 0 seeks
[image2 @ 0000029609c6f340] Opening 'output3/morphed_image_0122.png' for reading
[file @ 000002961633a380] Setting default whitelist 'file,crypto,data'
[AVIOContext @ 000002960fa76400] Statistics: 1785169 bytes read, 0 seeks
[image2 @ 0000029609c6f340] Opening 'output3/morphed_image_0123.png' for reading
[file @ 000002961633a380] Setting default whitelist 'file,crypto,data'
[AVIOContext @ 000002960fa76400] Statistics: 1783472 bytes read, 0 seeks
frame=   73 fps=9.9 q=24.4 size=     512kB time=00:00:09.00 bitrate= 466.1kbits/s speed=1.23x    [image2 @ 0000029609c6f340] Opening 'output3/morphed_image_0124.png' for reading
[file @ 000002961633ad40] Setting default whitelist 'file,crypto,data'
[AVIOContext @ 000002960fa76400] Statistics: 1781748 bytes read, 0 seeks
[image2 @ 0000029609c6f340] Opening 'output3/morphed_image_0125.png' for reading
[file @ 000002961633ab00] Setting default whitelist 'file,crypto,data'
[AVIOContext @ 000002960fa76400] Statistics: 1780065 bytes read, 0 seeks
[image2 @ 0000029609c6f340] Opening 'output3/morphed_image_0126.png' for reading
[file @ 000002961633ab00] Setting default whitelist 'file,crypto,data'
[AVIOContext @ 000002960fa76400] Statistics: 1778223 bytes read, 0 seeks
[image2 @ 0000029609c6f340] Opening 'output3/morphed_image_0127.png' for reading
[file @ 000002961633a380] Setting default whitelist 'file,crypto,data'
[AVIOContext @ 000002960fa76400] Statistics: 1776373 bytes read, 0 seeks
[image2 @ 0000029609c6f340] Opening 'output3/morphed_image_0128.png' for reading
[file @ 000002961633a380] Setting default whitelist 'file,crypto,data'
[AVIOContext @ 000002960fa76400] Statistics: 1774571 bytes read, 0 seeks
[image2 @ 0000029609c6f340] Opening 'output3/morphed_image_0129.png' for reading
[file @ 000002961633a380] Setting default whitelist 'file,crypto,data'
[AVIOContext @ 000002960fa76400] Statistics: 1772844 bytes read, 0 seeks
frame=   79 fps=9.8 q=24.3 size=     512kB time=00:00:09.00 bitrate= 466.1kbits/s speed=1.12x    [image2 @ 0000029609c6f340] Opening 'output3/morphed_image_0130.png' for reading
[file @ 0000029616339c40] Setting default whitelist 'file,crypto,data'
[AVIOContext @ 000002960fa76400] Statistics: 1771032 bytes read, 0 seeks
[image2 @ 0000029609c6f340] Opening 'output3/morphed_image_0131.png' for reading
[file @ 0000029616339780] Setting default whitelist 'file,crypto,data'
[AVIOContext @ 000002960fa76400] Statistics: 1769167 bytes read, 0 seeks
[image2 @ 0000029609c6f340] Opening 'output3/morphed_image_0132.png' for reading
[file @ 0000029616339780] Setting default whitelist 'file,crypto,data'
[AVIOContext @ 000002960fa76400] Statistics: 1767858 bytes read, 0 seeks
frame=   82 fps=9.5 q=24.6 size=     512kB time=00:00:09.00 bitrate= 466.1kbits/s speed=1.05x    [image2 @ 0000029609c6f340] Opening 'output3/morphed_image_0133.png' for reading
[file @ 0000029616339780] Setting default whitelist 'file,crypto,data'
[AVIOContext @ 000002960fa76400] Statistics: 1765734 bytes read, 0 seeks
frame=   83 fps=9.0 q=24.5 size=     512kB time=00:00:09.00 bitrate= 466.1kbits/s speed=0.977x    [image2 @ 0000029609c6f340] Opening 'output3/morphed_image_0134.png' for reading
[file @ 0000029616339780] Setting default whitelist 'file,crypto,data'
[AVIOContext @ 000002960fa76400] Statistics: 1764094 bytes read, 0 seeks
[image2 @ 0000029609c6f340] Opening 'output3/morphed_image_0135.png' for reading
[file @ 0000029616339840] Setting default whitelist 'file,crypto,data'
[AVIOContext @ 000002960fa76400] Statistics: 1762378 bytes read, 0 seeks
[image2 @ 0000029609c6f340] Opening 'output3/morphed_image_0136.png' for reading
[file @ 0000029616339c40] Setting default whitelist 'file,crypto,data'
[AVIOContext @ 000002960fa76400] Statistics: 1760897 bytes read, 0 seeks
[image2 @ 0000029609c6f340] Opening 'output3/morphed_image_0137.png' for reading
[file @ 0000029616339780] Setting default whitelist 'file,crypto,data'
[AVIOContext @ 000002960fa76400] Statistics: 1759298 bytes read, 0 seeks
frame=   87 fps=8.6 q=24.4 size=     512kB time=00:00:09.00 bitrate= 466.1kbits/s speed=0.894x    [image2 @ 0000029609c6f340] Opening 'output3/morphed_image_0138.png' for reading
[file @ 000002961633a940] Setting default whitelist 'file,crypto,data'
[AVIOContext @ 000002960fa76400] Statistics: 1757628 bytes read, 0 seeks
[image2 @ 0000029609c6f340] Opening 'output3/morphed_image_0139.png' for reading
[file @ 0000029616339c40] Setting default whitelist 'file,crypto,data'
[AVIOContext @ 000002960fa76400] Statistics: 1755990 bytes read, 0 seeks
[image2 @ 0000029609c6f340] Opening 'output3/morphed_image_0140.png' for reading
[file @ 000002961633ab00] Setting default whitelist 'file,crypto,data'
[AVIOContext @ 000002960fa76400] Statistics: 1754491 bytes read, 0 seeks
frame=   90 fps=8.5 q=24.5 size=     512kB time=00:00:09.00 bitrate= 466.1kbits/s speed=0.847x    [image2 @ 0000029609c6f340] Opening 'output3/morphed_image_0141.png' for reading
[file @ 0000029616339780] Setting default whitelist 'file,crypto,data'
[AVIOContext @ 000002960fa76400] Statistics: 1753138 bytes read, 0 seeks
[image2 @ 0000029609c6f340] Opening 'output3/morphed_image_0142.png' for reading
[file @ 000002961633a940] Setting default whitelist 'file,crypto,data'
[AVIOContext @ 000002960fa76400] Statistics: 1751522 bytes read, 0 seeks
frame=   92 fps=8.1 q=24.4 size=     512kB time=00:00:09.00 bitrate= 466.1kbits/s speed=0.791x    [image2 @ 0000029609c6f340] Opening 'output3/morphed_image_0143.png' for reading
[file @ 0000029616339780] Setting default whitelist 'file,crypto,data'
[AVIOContext @ 000002960fa76400] Statistics: 1749697 bytes read, 0 seeks
[image2 @ 0000029609c6f340] Opening 'output3/morphed_image_0144.png' for reading
[file @ 000002961633a380] Setting default whitelist 'file,crypto,data'
[AVIOContext @ 000002960fa76400] Statistics: 1748088 bytes read, 0 seeks
[image2 @ 0000029609c6f340] Opening 'output3/morphed_image_0145.png' for reading
[file @ 000002961633a6c0] Setting default whitelist 'file,crypto,data'
[AVIOContext @ 000002960fa76400] Statistics: 1746698 bytes read, 0 seeks
frame=   95 fps=7.8 q=24.3 size=     512kB time=00:00:09.00 bitrate= 466.1kbits/s speed=0.74x    [image2 @ 0000029609c6f340] Opening 'output3/morphed_image_0146.png' for reading
[file @ 000002961633a380] Setting default whitelist 'file,crypto,data'
[AVIOContext @ 000002960fa76400] Statistics: 1745217 bytes read, 0 seeks
[image2 @ 0000029609c6f340] Opening 'output3/morphed_image_0147.png' for reading
[file @ 000002961633a380] Setting default whitelist 'file,crypto,data'
[AVIOContext @ 000002960fa76400] Statistics: 1743845 bytes read, 0 seeks
[image2 @ 0000029609c6f340] Opening 'output3/morphed_image_0148.png' for reading
[file @ 000002961633abc0] Setting default whitelist 'file,crypto,data'
[AVIOContext @ 000002960fa76400] Statistics: 1742374 bytes read, 0 seeks
[image2 @ 0000029609c6f340] Opening 'output3/morphed_image_0149.png' for reading
[file @ 0000029616339900] Setting default whitelist 'file,crypto,data'
[AVIOContext @ 000002960fa76400] Statistics: 1740891 bytes read, 0 seeks
frame=   99 fps=7.4 q=24.4 size=     512kB time=00:00:09.00 bitrate= 466.1kbits/s speed=0.677x    [image2 @ 0000029609c6f340] Opening 'output3/morphed_image_0150.png' for reading
[file @ 0000029616339780] Setting default whitelist 'file,crypto,data'
[AVIOContext @ 000002960fa76400] Statistics: 1739983 bytes read, 0 seeks
[image2 @ 0000029609c6f340] Opening 'output3/morphed_image_0151.png' for reading
[file @ 0000029616339c40] Setting default whitelist 'file,crypto,data'
[AVIOContext @ 000002960fa76400] Statistics: 1738172 bytes read, 0 seeks
[image2 @ 0000029609c6f340] Opening 'output3/morphed_image_0152.png' for reading
[file @ 0000029616339c40] Setting default whitelist 'file,crypto,data'
[AVIOContext @ 000002960fa76400] Statistics: 1736854 bytes read, 0 seeks
[image2 @ 0000029609c6f340] Opening 'output3/morphed_image_0153.png' for reading
[file @ 0000029616339c40] Setting default whitelist 'file,crypto,data'
[AVIOContext @ 000002960fa76400] Statistics: 1735545 bytes read, 0 seeks
frame=  103 fps=7.4 q=24.3 size=     512kB time=00:00:09.00 bitrate= 466.1kbits/s speed=0.648x    [image2 @ 0000029609c6f340] Opening 'output3/morphed_image_0154.png' for reading
[file @ 000002961633a940] Setting default whitelist 'file,crypto,data'
[AVIOContext @ 000002960fa76400] Statistics: 1734022 bytes read, 0 seeks
frame=  104 fps=7.2 q=24.3 size=     512kB time=00:00:09.00 bitrate= 466.1kbits/s speed=0.621x    [image2 @ 0000029609c6f340] Opening 'output3/morphed_image_0155.png' for reading
[file @ 0000029616339780] Setting default whitelist 'file,crypto,data'
[AVIOContext @ 000002960fa76400] Statistics: 1732935 bytes read, 0 seeks
[image2 @ 0000029609c6f340] Opening 'output3/morphed_image_0156.png' for reading
[file @ 0000029616339900] Setting default whitelist 'file,crypto,data'
[AVIOContext @ 000002960fa76400] Statistics: 1731727 bytes read, 0 seeks
[image2 @ 0000029609c6f340] Opening 'output3/morphed_image_0157.png' for reading
[file @ 000002961633a940] Setting default whitelist 'file,crypto,data'
[AVIOContext @ 000002960fa76400] Statistics: 1730249 bytes read, 0 seeks
[image2 @ 0000029609c6f340] Opening 'output3/morphed_image_0158.png' for reading
[file @ 0000029616339780] Setting default whitelist 'file,crypto,data'
[AVIOContext @ 000002960fa76400] Statistics: 1728683 bytes read, 0 seeks
frame=  108 fps=7.2 q=24.4 size=     512kB time=00:00:09.00 bitrate= 466.1kbits/s speed=0.596x    [image2 @ 0000029609c6f340] Opening 'output3/morphed_image_0159.png' for reading
[file @ 0000029616339e00] Setting default whitelist 'file,crypto,data'
[AVIOContext @ 000002960fa76400] Statistics: 1727509 bytes read, 0 seeks
frame=  109 fps=6.9 q=24.4 size=     512kB time=00:00:09.00 bitrate= 466.1kbits/s speed=0.572x    [image2 @ 0000029609c6f340] Opening 'output3/morphed_image_0160.png' for reading
[file @ 0000029616339c40] Setting default whitelist 'file,crypto,data'
[AVIOContext @ 000002960fa76400] Statistics: 1726111 bytes read, 0 seeks
[image2 @ 0000029609c6f340] Opening 'output3/morphed_image_0161.png' for reading
[file @ 000002961633a6c0] Setting default whitelist 'file,crypto,data'
[AVIOContext @ 000002960fa76400] Statistics: 1725035 bytes read, 0 seeks
[image2 @ 0000029609c6f340] Opening 'output3/morphed_image_0162.png' for reading
[file @ 0000029616339780] Setting default whitelist 'file,crypto,data'
[AVIOContext @ 000002960fa76400] Statistics: 1724165 bytes read, 0 seeks
[image2 @ 0000029609c6f340] Opening 'output3/morphed_image_0163.png' for reading
[file @ 0000029616339c40] Setting default whitelist 'file,crypto,data'
[AVIOContext @ 000002960fa76400] Statistics: 1723173 bytes read, 0 seeks
frame=  113 fps=6.8 q=24.2 size=     512kB time=00:00:09.00 bitrate= 466.1kbits/s speed=0.541x    [image2 @ 0000029609c6f340] Opening 'output3/morphed_image_0164.png' for reading
[file @ 000002961633a6c0] Setting default whitelist 'file,crypto,data'
[AVIOContext @ 000002960fa76400] Statistics: 1721866 bytes read, 0 seeks
[image2 @ 0000029609c6f340] Opening 'output3/morphed_image_0165.png' for reading
[file @ 0000029616339780] Setting default whitelist 'file,crypto,data'
[AVIOContext @ 000002960fa76400] Statistics: 1720903 bytes read, 0 seeks
[image2 @ 0000029609c6f340] Opening 'output3/morphed_image_0166.png' for reading
[file @ 0000029616339780] Setting default whitelist 'file,crypto,data'
[AVIOContext @ 000002960fa76400] Statistics: 1719864 bytes read, 0 seeks
frame=  116 fps=6.6 q=24.4 size=     512kB time=00:00:09.00 bitrate= 466.1kbits/s speed=0.514x    [image2 @ 0000029609c6f340] Opening 'output3/morphed_image_0167.png' for reading
[file @ 0000029616339780] Setting default whitelist 'file,crypto,data'
[AVIOContext @ 000002960fa76400] Statistics: 1718503 bytes read, 0 seeks
[image2 @ 0000029609c6f340] Opening 'output3/morphed_image_0168.png' for reading
[file @ 0000029616339c40] Setting default whitelist 'file,crypto,data'
[AVIOContext @ 000002960fa76400] Statistics: 1717852 bytes read, 0 seeks
[image2 @ 0000029609c6f340] Opening 'output3/morphed_image_0169.png' for reading
[file @ 0000029616339c40] Setting default whitelist 'file,crypto,data'
[AVIOContext @ 000002960fa76400] Statistics: 1716740 bytes read, 0 seeks
[image2 @ 0000029609c6f340] Opening 'output3/morphed_image_0170.png' for reading
[file @ 0000029616339c40] Setting default whitelist 'file,crypto,data'
[AVIOContext @ 000002960fa76400] Statistics: 1716043 bytes read, 0 seeks
frame=  120 fps=6.6 q=24.6 size=     512kB time=00:00:09.00 bitrate= 466.1kbits/s speed=0.498x    [image2 @ 0000029609c6f340] Opening 'output3/morphed_image_0171.png' for reading
[file @ 0000029616339c40] Setting default whitelist 'file,crypto,data'
[AVIOContext @ 000002960fa76400] Statistics: 1714800 bytes read, 0 seeks
frame=  121 fps=6.5 q=24.2 size=     512kB time=00:00:09.00 bitrate= 466.1kbits/s speed=0.484x    [image2 @ 0000029609c6f340] Opening 'output3/morphed_image_0172.png' for reading
[file @ 000002961633a6c0] Setting default whitelist 'file,crypto,data'
[AVIOContext @ 000002960fa76400] Statistics: 1713938 bytes read, 0 seeks
[image2 @ 0000029609c6f340] Opening 'output3/morphed_image_0173.png' for reading
[file @ 0000029616339900] Setting default whitelist 'file,crypto,data'
[AVIOContext @ 000002960fa76400] Statistics: 1712880 bytes read, 0 seeks
[image2 @ 0000029609c6f340] Opening 'output3/morphed_image_0174.png' for reading
[file @ 0000029616339780] Setting default whitelist 'file,crypto,data'
[AVIOContext @ 000002960fa76400] Statistics: 1711957 bytes read, 0 seeks
[image2 @ 0000029609c6f340] Opening 'output3/morphed_image_0175.png' for reading
[file @ 000002961633ad40] Setting default whitelist 'file,crypto,data'
[AVIOContext @ 000002960fa76400] Statistics: 1711216 bytes read, 0 seeks
frame=  125 fps=6.4 q=24.2 size=     512kB time=00:00:09.00 bitrate= 466.1kbits/s speed=0.464x    [image2 @ 0000029609c6f340] Opening 'output3/morphed_image_0176.png' for reading
[file @ 000002961633a380] Setting default whitelist 'file,crypto,data'
[AVIOContext @ 000002960fa76400] Statistics: 1710562 bytes read, 0 seeks
frame=  126 fps=6.3 q=24.3 size=     512kB time=00:00:09.00 bitrate= 466.1kbits/s speed=0.45x    [image2 @ 0000029609c6f340] Opening 'output3/morphed_image_0177.png' for reading
[file @ 000002961633a380] Setting default whitelist 'file,crypto,data'
[AVIOContext @ 000002960fa76400] Statistics: 1709545 bytes read, 0 seeks
[image2 @ 0000029609c6f340] Opening 'output3/morphed_image_0178.png' for reading
[file @ 000002961633a6c0] Setting default whitelist 'file,crypto,data'
[AVIOContext @ 00000296257f8cc0] Statistics: 1708859 bytes read, 0 seeks
[image2 @ 0000029609c6f340] Opening 'output3/morphed_image_0179.png' for reading
[file @ 0000029616339c40] Setting default whitelist 'file,crypto,data'
[AVIOContext @ 00000296257f8cc0] Statistics: 1707760 bytes read, 0 seeks
[image2 @ 0000029609c6f340] Opening 'output3/morphed_image_0180.png' for reading
[file @ 000002961633a380] Setting default whitelist 'file,crypto,data'
[AVIOContext @ 00000296257f8cc0] Statistics: 1707513 bytes read, 0 seeks
frame=  130 fps=6.2 q=24.3 size=     512kB time=00:00:09.00 bitrate= 466.1kbits/s speed=0.431x    [image2 @ 0000029609c6f340] Opening 'output3/morphed_image_0181.png' for reading
[file @ 000002961633a940] Setting default whitelist 'file,crypto,data'
[AVIOContext @ 00000296257f8cc0] Statistics: 1706761 bytes read, 0 seeks
[image2 @ 0000029609c6f340] Opening 'output3/morphed_image_0182.png' for reading
[file @ 0000029616339c40] Setting default whitelist 'file,crypto,data'
[AVIOContext @ 00000296257f8cc0] Statistics: 1706228 bytes read, 0 seeks
[image2 @ 0000029609c6f340] Opening 'output3/morphed_image_0183.png' for reading
[file @ 0000029616339780] Setting default whitelist 'file,crypto,data'
[AVIOContext @ 00000296257f8cc0] Statistics: 1705439 bytes read, 0 seeks
[image2 @ 0000029609c6f340] Opening 'output3/morphed_image_0184.png' for reading
[file @ 000002961633a380] Setting default whitelist 'file,crypto,data'
[AVIOContext @ 00000296257f8cc0] Statistics: 1704844 bytes read, 0 seeks
frame=  134 fps=6.1 q=24.4 size=     768kB time=00:00:09.00 bitrate= 699.1kbits/s speed=0.412x    [image2 @ 0000029609c6f340] Opening 'output3/morphed_image_0185.png' for reading
[file @ 0000029616339c40] Setting default whitelist 'file,crypto,data'
[AVIOContext @ 00000296257f8cc0] Statistics: 1704608 bytes read, 0 seeks
[image2 @ 0000029609c6f340] Opening 'output3/morphed_image_0186.png' for reading
[file @ 000002961633ad40] Setting default whitelist 'file,crypto,data'
[AVIOContext @ 00000296257f8cc0] Statistics: 1703959 bytes read, 0 seeks
[image2 @ 0000029609c6f340] Opening 'output3/morphed_image_0187.png' for reading
[file @ 000002961633a380] Setting default whitelist 'file,crypto,data'
[AVIOContext @ 00000296257f8cc0] Statistics: 1703349 bytes read, 0 seeks
[image2 @ 0000029609c6f340] Opening 'output3/morphed_image_0188.png' for reading
[file @ 0000029616339780] Setting default whitelist 'file,crypto,data'
[AVIOContext @ 00000296257f8cc0] Statistics: 1703241 bytes read, 0 seeks
frame=  138 fps=6.1 q=24.5 size=     768kB time=00:00:09.00 bitrate= 699.1kbits/s speed=0.395x    [image2 @ 0000029609c6f340] Opening 'output3/morphed_image_0189.png' for reading
[file @ 0000029616339780] Setting default whitelist 'file,crypto,data'
[AVIOContext @ 00000296257f8cc0] Statistics: 1702288 bytes read, 0 seeks
[image2 @ 0000029609c6f340] Opening 'output3/morphed_image_0190.png' for reading
[file @ 0000029616339780] Setting default whitelist 'file,crypto,data'
[AVIOContext @ 00000296257f8cc0] Statistics: 1702249 bytes read, 0 seeks
[image2 @ 0000029609c6f340] Opening 'output3/morphed_image_0191.png' for reading
[file @ 0000029616339780] Setting default whitelist 'file,crypto,data'
[AVIOContext @ 00000296257f8cc0] Statistics: 1701654 bytes read, 0 seeks
[image2 @ 0000029609c6f340] Opening 'output3/morphed_image_0192.png' for reading
[file @ 0000029616339780] Setting default whitelist 'file,crypto,data'
[AVIOContext @ 00000296257f8cc0] Statistics: 1701191 bytes read, 0 seeks
frame=  142 fps=6.1 q=24.5 size=     768kB time=00:00:09.00 bitrate= 699.1kbits/s speed=0.385x    [image2 @ 0000029609c6f340] Opening 'output3/morphed_image_0193.png' for reading
[file @ 000002961633a6c0] Setting default whitelist 'file,crypto,data'
[AVIOContext @ 00000296257f8cc0] Statistics: 1700946 bytes read, 0 seeks
frame=  143 fps=6.0 q=24.4 size=     768kB time=00:00:09.00 bitrate= 699.1kbits/s speed=0.376x    [image2 @ 0000029609c6f340] Opening 'output3/morphed_image_0194.png' for reading
[file @ 000002961633a380] Setting default whitelist 'file,crypto,data'
[AVIOContext @ 00000296257f8cc0] Statistics: 1701081 bytes read, 0 seeks
[image2 @ 0000029609c6f340] Opening 'output3/morphed_image_0195.png' for reading
[file @ 0000029616339780] Setting default whitelist 'file,crypto,data'
[AVIOContext @ 00000296257f8cc0] Statistics: 1700673 bytes read, 0 seeks
[image2 @ 0000029609c6f340] Opening 'output3/morphed_image_0196.png' for reading
[file @ 0000029616339780] Setting default whitelist 'file,crypto,data'
[AVIOContext @ 00000296257f8cc0] Statistics: 1700470 bytes read, 0 seeks
frame=  146 fps=6.0 q=24.5 size=     768kB time=00:00:09.00 bitrate= 699.1kbits/s speed=0.368x    [image2 @ 0000029609c6f340] Opening 'output3/morphed_image_0197.png' for reading
[file @ 0000029616339780] Setting default whitelist 'file,crypto,data'
[AVIOContext @ 00000296257f8cc0] Statistics: 1700124 bytes read, 0 seeks
frame=  147 fps=5.9 q=24.5 size=     768kB time=00:00:09.00 bitrate= 699.1kbits/s speed=0.36x    [image2 @ 0000029609c6f340] Opening 'output3/morphed_image_0198.png' for reading
[file @ 000002961633ab00] Setting default whitelist 'file,crypto,data'
[AVIOContext @ 00000296257f8cc0] Statistics: 1700335 bytes read, 0 seeks
[image2 @ 0000029609c6f340] Opening 'output3/morphed_image_0199.png' for reading
[file @ 0000029616339e00] Setting default whitelist 'file,crypto,data'
[AVIOContext @ 00000296257f8cc0] Statistics: 1699988 bytes read, 0 seeks
[image2 @ 0000029609c6f340] Opening 'output3/morphed_image_0200.png' for reading
[file @ 000002961633a380] Setting default whitelist 'file,crypto,data'
[AVIOContext @ 00000296257f8cc0] Statistics: 1699836 bytes read, 0 seeks
[image2 @ 0000029609c6f340] Opening 'output3/morphed_image_0201.png' for reading
[file @ 0000029616339e00] Setting default whitelist 'file,crypto,data'
[AVIOContext @ 00000296257f8cc0] Statistics: 1699838 bytes read, 0 seeks
frame=  151 fps=5.9 q=24.7 size=     768kB time=00:00:09.00 bitrate= 699.1kbits/s speed=0.352x    [image2 @ 0000029609c6f340] Opening 'output3/morphed_image_0202.png' for reading
[file @ 0000029616339840] Setting default whitelist 'file,crypto,data'
[AVIOContext @ 00000296257f8cc0] Statistics: 1699761 bytes read, 0 seeks
frame=  152 fps=5.8 q=24.4 size=     768kB time=00:00:09.00 bitrate= 699.1kbits/s speed=0.345x    [image2 @ 0000029609c6f340] Opening 'output3/morphed_image_0203.png' for reading
[file @ 0000029616339780] Setting default whitelist 'file,crypto,data'
[AVIOContext @ 00000296257f8cc0] Statistics: 1699629 bytes read, 0 seeks
[image2 @ 0000029609c6f340] Opening 'output3/morphed_image_0204.png' for reading
[file @ 000002961633a380] Setting default whitelist 'file,crypto,data'
[AVIOContext @ 00000296257f8cc0] Statistics: 1699681 bytes read, 0 seeks
[image2 @ 0000029609c6f340] Opening 'output3/morphed_image_0205.png' for reading
[file @ 000002961633a380] Setting default whitelist 'file,crypto,data'
[AVIOContext @ 00000296257f8cc0] Statistics: 1699783 bytes read, 0 seeks
frame=  155 fps=5.8 q=24.4 size=     768kB time=00:00:09.00 bitrate= 699.1kbits/s speed=0.334x    [image2 @ 0000029609c6f340] Opening 'output3/morphed_image_0206.png' for reading
[file @ 0000029616339900] Setting default whitelist 'file,crypto,data'
[AVIOContext @ 00000296257f8cc0] Statistics: 1699966 bytes read, 0 seeks
[image2 @ 0000029609c6f340] Opening 'output3/morphed_image_0207.png' for reading
[file @ 0000029616339780] Setting default whitelist 'file,crypto,data'
[AVIOContext @ 00000296257f8cc0] Statistics: 1699870 bytes read, 0 seeks
[image2 @ 0000029609c6f340] Opening 'output3/morphed_image_0208.png' for reading
[file @ 0000029616339780] Setting default whitelist 'file,crypto,data'
[AVIOContext @ 00000296257f8cc0] Statistics: 1700376 bytes read, 0 seeks
[image2 @ 0000029609c6f340] Opening 'output3/morphed_image_0209.png' for reading
[file @ 0000029616339c40] Setting default whitelist 'file,crypto,data'
[AVIOContext @ 00000296257f8cc0] Statistics: 1700574 bytes read, 0 seeks
frame=  159 fps=5.8 q=24.6 size=     768kB time=00:00:09.00 bitrate= 699.1kbits/s speed=0.327x    [image2 @ 0000029609c6f340] Opening 'output3/morphed_image_0210.png' for reading
[file @ 0000029616339780] Setting default whitelist 'file,crypto,data'
[AVIOContext @ 00000296257f8cc0] Statistics: 1701124 bytes read, 0 seeks
[image2 @ 0000029609c6f340] Opening 'output3/morphed_image_0211.png' for reading
[file @ 0000029616339780] Setting default whitelist 'file,crypto,data'
[AVIOContext @ 00000296257f8cc0] Statistics: 1701550 bytes read, 0 seeks
frame=  161 fps=5.7 q=24.4 size=     768kB time=00:00:09.00 bitrate= 699.1kbits/s speed=0.318x    [image2 @ 0000029609c6f340] Opening 'output3/morphed_image_0212.png' for reading
[file @ 0000029616339c40] Setting default whitelist 'file,crypto,data'
[AVIOContext @ 00000296257f8cc0] Statistics: 1702031 bytes read, 0 seeks
[image2 @ 0000029609c6f340] Opening 'output3/morphed_image_0213.png' for reading
[file @ 0000029616339780] Setting default whitelist 'file,crypto,data'
[AVIOContext @ 00000296257f8cc0] Statistics: 1702852 bytes read, 0 seeks
[image2 @ 0000029609c6f340] Opening 'output3/morphed_image_0214.png' for reading
[file @ 000002961633a380] Setting default whitelist 'file,crypto,data'
[AVIOContext @ 00000296257f8cc0] Statistics: 1703171 bytes read, 0 seeks
frame=  164 fps=5.6 q=24.4 size=     768kB time=00:00:09.00 bitrate= 699.1kbits/s speed=0.308x    [image2 @ 0000029609c6f340] Opening 'output3/morphed_image_0215.png' for reading
[file @ 000002961633a940] Setting default whitelist 'file,crypto,data'
[AVIOContext @ 00000296257f8cc0] Statistics: 1703693 bytes read, 0 seeks
[image2 @ 0000029609c6f340] Opening 'output3/morphed_image_0216.png' for reading
[file @ 0000029616339c40] Setting default whitelist 'file,crypto,data'
[AVIOContext @ 00000296257f8cc0] Statistics: 1704493 bytes read, 0 seeks
[image2 @ 0000029609c6f340] Opening 'output3/morphed_image_0217.png' for reading
[file @ 0000029616339900] Setting default whitelist 'file,crypto,data'
[AVIOContext @ 00000296257f8cc0] Statistics: 1704742 bytes read, 0 seeks
[image2 @ 0000029609c6f340] Opening 'output3/morphed_image_0218.png' for reading
[file @ 000002961633ad40] Setting default whitelist 'file,crypto,data'
[AVIOContext @ 00000296257f8cc0] Statistics: 1705576 bytes read, 0 seeks
frame=  168 fps=5.6 q=24.5 size=     768kB time=00:00:09.00 bitrate= 699.1kbits/s speed=0.299x    [image2 @ 0000029609c6f340] Opening 'output3/morphed_image_0219.png' for reading
[file @ 0000029616339780] Setting default whitelist 'file,crypto,data'
[AVIOContext @ 00000296257f8cc0] Statistics: 1706201 bytes read, 0 seeks
[image2 @ 0000029609c6f340] Opening 'output3/morphed_image_0220.png' for reading
[file @ 000002961633a6c0] Setting default whitelist 'file,crypto,data'
[AVIOContext @ 00000296257f8cc0] Statistics: 1706637 bytes read, 0 seeks
[image2 @ 0000029609c6f340] Opening 'output3/morphed_image_0221.png' for reading
[file @ 0000029616339780] Setting default whitelist 'file,crypto,data'
[AVIOContext @ 00000296257f8cc0] Statistics: 1707270 bytes read, 0 seeks
[image2 @ 0000029609c6f340] Opening 'output3/morphed_image_0222.png' for reading
[file @ 000002961633a380] Setting default whitelist 'file,crypto,data'
[AVIOContext @ 00000296257f8cc0] Statistics: 1708107 bytes read, 0 seeks
frame=  172 fps=5.6 q=24.5 size=     768kB time=00:00:09.00 bitrate= 699.1kbits/s speed=0.294x    [image2 @ 0000029609c6f340] Opening 'output3/morphed_image_0223.png' for reading
[file @ 0000029616339c40] Setting default whitelist 'file,crypto,data'
[AVIOContext @ 00000296257f8cc0] Statistics: 1708591 bytes read, 0 seeks
[image2 @ 0000029609c6f340] Opening 'output3/morphed_image_0224.png' for reading
[file @ 0000029616339e00] Setting default whitelist 'file,crypto,data'
[AVIOContext @ 00000296257f8cc0] Statistics: 1709538 bytes read, 0 seeks
frame=  174 fps=5.5 q=24.4 size=     768kB time=00:00:09.00 bitrate= 699.1kbits/s speed=0.285x    [image2 @ 0000029609c6f340] Opening 'output3/morphed_image_0225.png' for reading
[file @ 0000029616339780] Setting default whitelist 'file,crypto,data'
[AVIOContext @ 00000296257f8cc0] Statistics: 1710204 bytes read, 0 seeks
[image2 @ 0000029609c6f340] Opening 'output3/morphed_image_0226.png' for reading
[file @ 0000029616339780] Setting default whitelist 'file,crypto,data'
[AVIOContext @ 00000296257f8cc0] Statistics: 1710771 bytes read, 0 seeks
[image2 @ 0000029609c6f340] Opening 'output3/morphed_image_0227.png' for reading
[file @ 000002961633ab00] Setting default whitelist 'file,crypto,data'
[AVIOContext @ 00000296257f8cc0] Statistics: 1711697 bytes read, 0 seeks
[image2 @ 0000029609c6f340] Opening 'output3/morphed_image_0228.png' for reading
[file @ 0000029616339780] Setting default whitelist 'file,crypto,data'
[AVIOContext @ 00000296257f8cc0] Statistics: 1713501 bytes read, 0 seeks
frame=  177 fps=5.4 q=24.6 size=     768kB time=00:00:09.00 bitrate= 699.1kbits/s speed=0.277x    [image2 @ 0000029609c6f340] Opening 'output3/morphed_image_0229.png' for reading
[file @ 000002961633a6c0] Setting default whitelist 'file,crypto,data'
[AVIOContext @ 00000296257f8cc0] Statistics: 1713996 bytes read, 0 seeks
[image2 @ 0000029609c6f340] Opening 'output3/morphed_image_0230.png' for reading
[file @ 0000029616339780] Setting default whitelist 'file,crypto,data'
[AVIOContext @ 00000296257f8cc0] Statistics: 1716218 bytes read, 0 seeks
[image2 @ 0000029609c6f340] Opening 'output3/morphed_image_0231.png' for reading
[file @ 000002961633ab00] Setting default whitelist 'file,crypto,data'
[AVIOContext @ 00000296257f8cc0] Statistics: 1717874 bytes read, 0 seeks
[image2 @ 0000029609c6f340] Opening 'output3/morphed_image_0232.png' for reading
[file @ 000002961633a940] Setting default whitelist 'file,crypto,data'
[AVIOContext @ 00000296257f8cc0] Statistics: 1719598 bytes read, 0 seeks
frame=  182 fps=5.5 q=24.5 size=     768kB time=00:00:09.00 bitrate= 699.1kbits/s speed=0.27x    [image2 @ 0000029609c6f340] Opening 'output3/morphed_image_0233.png' for reading
[file @ 000002961633ab00] Setting default whitelist 'file,crypto,data'
[AVIOContext @ 00000296257f8cc0] Statistics: 1720861 bytes read, 0 seeks
[image2 @ 0000029609c6f340] Opening 'output3/morphed_image_0234.png' for reading
[file @ 000002961633a940] Setting default whitelist 'file,crypto,data'
[AVIOContext @ 00000296257f8cc0] Statistics: 1722200 bytes read, 0 seeks
[image2 @ 0000029609c6f340] Opening 'output3/morphed_image_0235.png' for reading
[file @ 000002961633ad40] Setting default whitelist 'file,crypto,data'
[AVIOContext @ 00000296257f8cc0] Statistics: 1723419 bytes read, 0 seeks
frame=  185 fps=5.4 q=24.6 size=     768kB time=00:00:09.00 bitrate= 699.1kbits/s speed=0.263x    [image2 @ 0000029609c6f340] Opening 'output3/morphed_image_0236.png' for reading
[file @ 000002961633a6c0] Setting default whitelist 'file,crypto,data'
[AVIOContext @ 00000296257f8cc0] Statistics: 1724970 bytes read, 0 seeks
[image2 @ 0000029609c6f340] Opening 'output3/morphed_image_0237.png' for reading
[file @ 0000029616339780] Setting default whitelist 'file,crypto,data'
[AVIOContext @ 00000296257f8cc0] Statistics: 1726276 bytes read, 0 seeks
[image2 @ 0000029609c6f340] Opening 'output3/morphed_image_0238.png' for reading
[file @ 0000029616339780] Setting default whitelist 'file,crypto,data'
[AVIOContext @ 00000296257f8cc0] Statistics: 1727648 bytes read, 0 seeks
[image2 @ 0000029609c6f340] Opening 'output3/morphed_image_0239.png' for reading
[file @ 0000029616339780] Setting default whitelist 'file,crypto,data'
[AVIOContext @ 00000296257f8cc0] Statistics: 1729090 bytes read, 0 seeks
frame=  189 fps=5.4 q=24.6 size=     768kB time=00:00:09.00 bitrate= 699.1kbits/s speed=0.256x    [image2 @ 0000029609c6f340] Opening 'output3/morphed_image_0240.png' for reading
[file @ 000002961633ab00] Setting default whitelist 'file,crypto,data'
[AVIOContext @ 00000296257f8cc0] Statistics: 1730189 bytes read, 0 seeks
[in#0/image2 @ 0000029609c6f200] EOF while reading input
[in#0/image2 @ 0000029609c6f200] Terminating demuxer thread
frame=  191 fps=0.8 q=32.9 size=     768kB time=00:00:09.00 bitrate= 699.1kbits/s speed=0.0357x    frame=  195 fps=0.8 q=24.6 size=    1024kB time=00:00:09.00 bitrate= 932.1kbits/s speed=0.0356x    frame=  199 fps=0.8 q=24.6 size=    1024kB time=00:00:09.00 bitrate= 932.1kbits/s speed=0.0355x    [vist#0:0/png @ 0000029609c7e940] Decoder thread received EOF packet
[vist#0:0/png @ 0000029609c7e940] Decoder returned EOF, finishing
[vist#0:0/png @ 0000029609c7e940] Terminating decoder thread
frame=  207 fps=0.8 q=24.8 size=    1024kB time=00:00:09.00 bitrate= 932.1kbits/s speed=0.0354x    [out_0_0 @ 0000029609cd0ec0] EOF on sink link out_0_0:default.
[sist#2:0/subrip @ 0000029609ca6d40] Decoder thread received EOF packet
[sist#2:0/subrip @ 0000029609ca6d40] Decoder returned EOF, finishing
[sist#2:0/subrip @ 0000029609ca6d40] Terminating decoder thread
[mp3 @ 0000029609c90680] demuxer injecting skip 0 / discard 47
[in#1/mp3 @ 0000029609c8fe40] EOF while reading input
[in#1/mp3 @ 0000029609c8fe40] Terminating demuxer thread
No more output streams to write to, finishing.
[out#0/mp4 @ 0000029609ca72c0] All streams finished
[out#0/mp4 @ 0000029609ca72c0] Terminating muxer thread
[AVIOContext @ 0000029609c9e780] Statistics: 1245674 bytes written, 2 seeks, 8 writeouts
[out#0/mp4 @ 0000029609ca72c0] Output file #0 (output3/video_audio_srt.mp4):
[out#0/mp4 @ 0000029609ca72c0]   Output stream #0:0 (video): 241 frames encoded; 241 packets muxed (1171468 bytes); 
[out#0/mp4 @ 0000029609ca72c0]   Output stream #0:1 (audio): 651 packets muxed (62496 bytes); 
[out#0/mp4 @ 0000029609ca72c0]   Output stream #0:2 (subtitle): 2 frames encoded; 2 packets muxed (204 bytes); 
[out#0/mp4 @ 0000029609ca72c0]   Total: 894 packets (1234168 bytes) muxed
[out#0/mp4 @ 0000029609ca72c0] video:1144kB audio:61kB subtitle:0kB other streams:0kB global headers:2kB muxing overhead: 0.931964%
frame=  241 fps=0.9 q=30.4 Lsize=    1216kB time=00:00:15.55 bitrate= 640.7kbits/s speed=0.0601x    
[in#0/image2 @ 0000029609c6f200] Input file #0 (output3/morphed_image_%04d.png):
[in#0/image2 @ 0000029609c6f200]   Input stream #0:0 (video): 241 packets read (438776748 bytes); 241 frames decoded; 0 decode errors; 
[in#0/image2 @ 0000029609c6f200]   Total: 241 packets (438776748 bytes) demuxed
[in#1/mp3 @ 0000029609c8fe40] Input file #1 (output3/merged_audio.mp3):
[in#1/mp3 @ 0000029609c8fe40]   Input stream #1:0 (audio): 651 packets read (62496 bytes); 
[in#1/mp3 @ 0000029609c8fe40]   Total: 651 packets (62496 bytes) demuxed
[AVIOContext @ 0000029609c90c40] Statistics: 62733 bytes read, 0 seeks
[in#2/srt @ 0000029609c87bc0] Input file #2 (output3/subtitles.srt):
[in#2/srt @ 0000029609c87bc0]   Input stream #2:0 (subtitle): 2 packets read (200 bytes); 2 frames decoded; 0 decode errors; 
[in#2/srt @ 0000029609c87bc0]   Total: 2 packets (200 bytes) demuxed
[AVIOContext @ 0000029609c7b900] Statistics: 276 bytes read, 0 seeks
